<svg xmlns="http://www.w3.org/2000/svg" xmlns:xlink="http://www.w3.org/1999/xlink" width="500" zoomAndPan="magnify" viewBox="0 0 375 374.999991" height="500" preserveAspectRatio="xMidYMid meet" version="1.0"><defs><g/><clipPath id="43a321c216"><path d="M 112.5 112.15625 L 262.5 112.15625 L 262.5 262.15625 L 112.5 262.15625 Z M 112.5 112.15625 " clip-rule="nonzero"/></clipPath></defs><rect x="-37.5" width="450" fill="#ffffff" y="-37.499999" height="449.999989" fill-opacity="1"/><rect x="-37.5" width="450" fill="#0d3b2d" y="-37.499999" height="449.999989" fill-opacity="1"/><g clip-path="url(#43a321c216)"><path fill="#e1bb77" d="M 187.488281 112.15625 C 146.140625 112.15625 112.5 145.792969 112.5 187.144531 C 112.5 228.496094 146.140625 262.136719 187.488281 262.136719 C 228.839844 262.136719 262.480469 228.496094 262.480469 187.144531 C 262.480469 145.792969 228.835938 112.15625 187.488281 112.15625 Z M 254.960938 183.597656 C 240.296875 184.527344 226.414062 189.617188 214.714844 198.273438 C 215.875 193.695312 216.605469 188.734375 216.847656 183.515625 L 254.953125 183.515625 C 254.953125 183.546875 254.953125 183.570312 254.960938 183.597656 Z M 165.496094 179.800781 C 165.496094 158.980469 174.710938 141.261719 185.945312 139.742188 C 180.96875 147.449219 178.59375 156.734375 179.492188 165.636719 C 180.1875 172.421875 182.519531 178.640625 185.261719 185.484375 L 185.496094 186.058594 C 187.863281 191.957031 190.105469 197.523438 190.941406 203.375 C 191.464844 207.074219 191.761719 214.097656 187.863281 219.527344 C 187.742188 219.6875 187.628906 219.828125 187.515625 219.976562 C 187.515625 219.976562 187.511719 219.976562 187.503906 219.976562 C 183.089844 219.976562 178.933594 217.453125 175.445312 213.179688 C 175.269531 212.953125 175.09375 212.726562 174.914062 212.5 C 169.261719 205.144531 165.492188 193.105469 165.492188 179.796875 Z M 187.503906 227.398438 C 188.703125 227.398438 189.871094 227.277344 191.027344 227.0625 C 189.660156 229.964844 188.480469 232.953125 187.488281 236.011719 C 186.5 232.953125 185.316406 229.964844 183.945312 227.058594 C 185.113281 227.273438 186.296875 227.398438 187.503906 227.398438 Z M 199.085938 213.742188 C 198.65625 214.246094 198.21875 214.71875 197.765625 215.164062 C 198.726562 211.226562 198.9375 206.886719 198.292969 202.324219 C 197.324219 195.585938 194.808594 189.332031 192.382812 183.289062 L 192.148438 182.714844 C 189.617188 176.402344 187.46875 170.703125 186.875 164.882812 C 186.046875 156.707031 188.640625 148.121094 193.859375 141.40625 C 202.804688 146.523438 209.511719 162.03125 209.511719 179.796875 C 209.511719 192.597656 206.027344 204.226562 200.734375 211.640625 C 200.171875 212.335938 199.625 213.03125 199.085938 213.742188 Z M 216.839844 176.085938 C 216.769531 174.515625 216.65625 172.96875 216.496094 171.449219 L 249.5 160.355469 C 251.652344 165.324219 253.21875 170.589844 254.128906 176.085938 Z M 203.238281 139.371094 L 211.617188 124.046875 C 217.289062 126.226562 222.597656 129.140625 227.417969 132.683594 L 210.085938 148.960938 C 208.136719 145.210938 205.828125 141.972656 203.238281 139.371094 Z M 197.277344 134.800781 C 195.347656 133.734375 193.320312 132.980469 191.214844 132.570312 L 191.214844 119.683594 C 195.75 119.929688 200.167969 120.625 204.425781 121.730469 L 197.277344 134.804688 Z M 183.789062 132.570312 C 181.679688 132.980469 179.644531 133.738281 177.703125 134.8125 L 170.542969 121.722656 C 174.8125 120.613281 179.242188 119.921875 183.789062 119.675781 Z M 171.742188 139.390625 C 169.15625 141.992188 166.851562 145.230469 164.90625 148.980469 L 147.550781 132.679688 C 152.371094 129.136719 157.675781 126.21875 163.351562 124.042969 L 171.742188 139.386719 Z M 158.160156 176.085938 L 120.84375 176.085938 C 121.753906 170.589844 123.324219 165.324219 125.472656 160.355469 L 158.515625 171.460938 C 158.355469 172.980469 158.238281 174.523438 158.167969 176.085938 Z M 158.160156 183.511719 C 158.398438 188.738281 159.128906 193.710938 160.292969 198.300781 C 148.597656 189.636719 134.707031 184.53125 120.011719 183.597656 C 120.011719 183.566406 120.015625 183.539062 120.015625 183.511719 L 158.164062 183.511719 Z M 125.253906 201.4375 L 125.253906 213.445312 C 123.03125 208.203125 121.460938 202.621094 120.625 196.8125 L 125.253906 201.441406 Z M 126.042969 191.722656 C 142.558594 194.316406 157.027344 202.707031 167.351562 214.773438 C 168.492188 216.492188 169.71875 218.066406 171.027344 219.472656 C 177.0625 227.925781 181.226562 237.824219 182.914062 248.597656 Z M 156.167969 232.351562 L 156.167969 246.984375 C 153.367188 245.511719 150.683594 243.847656 148.136719 242.011719 L 148.136719 224.316406 Z M 163.59375 239.777344 L 177.824219 254.007812 C 172.886719 253.296875 168.125 252.050781 163.59375 250.332031 Z M 218.808594 232.351562 L 226.839844 224.316406 L 226.839844 242.011719 C 224.285156 243.847656 221.605469 245.511719 218.808594 246.980469 L 218.808594 232.347656 Z M 211.382812 250.332031 C 206.847656 252.050781 202.085938 253.296875 197.152344 254.007812 L 211.382812 239.777344 Z M 192.0625 248.59375 C 193.75 237.867188 197.878906 228.007812 203.871094 219.582031 C 205.253906 218.109375 206.550781 216.445312 207.753906 214.625 C 218.074219 202.632812 232.488281 194.296875 248.9375 191.71875 Z M 254.347656 196.804688 C 253.511719 202.621094 251.945312 208.203125 249.71875 213.441406 L 249.71875 201.429688 L 254.347656 196.800781 Z M 246.132812 153.660156 L 215.328125 164.011719 C 214.753906 161.292969 214.035156 158.699219 213.1875 156.238281 L 233.195312 137.445312 C 238.289062 142.140625 242.660156 147.609375 246.128906 153.660156 Z M 141.777344 137.445312 L 161.808594 156.261719 C 160.964844 158.714844 160.246094 161.308594 159.671875 164.023438 L 128.835938 153.660156 C 132.304688 147.609375 136.675781 142.140625 141.769531 137.445312 Z M 132.675781 226.582031 L 132.675781 208.859375 L 140.710938 216.894531 L 140.710938 235.828125 C 137.765625 233 135.074219 229.902344 132.675781 226.582031 Z M 234.265625 235.828125 L 234.265625 216.894531 L 242.296875 208.859375 L 242.296875 226.582031 C 239.898438 229.902344 237.210938 232.996094 234.265625 235.828125 Z M 234.265625 235.828125 " fill-opacity="1" fill-rule="nonzero"/></g><g fill="#e1bb77" fill-opacity="1"><g transform="translate(120.353936, 138.07113)"><g><path d="M -4.546875 -8.828125 L -2.25 -6.953125 L 1.046875 -10.953125 L 2.65625 -9.625 L -0.640625 -5.625 L 2.5 -3.03125 L 0.84375 -1.03125 L -7.796875 -8.15625 L -2.40625 -14.6875 L -0.8125 -13.359375 Z M -4.546875 -8.828125 "/></g></g></g><g fill="#e1bb77" fill-opacity="1"><g transform="translate(128.838748, 128.026513)"><g><path d="M 5.015625 -7.515625 L 1.078125 -4.109375 L 1.90625 -1.640625 L -0.109375 0.09375 L -3.640625 -11.640625 L -1.703125 -13.328125 L 9.40625 -8.109375 L 7.34375 -6.34375 Z M 3.109375 -8.46875 L -1.03125 -10.546875 L 0.4375 -6.15625 Z M 3.109375 -8.46875 "/></g></g></g><g fill="#e1bb77" fill-opacity="1"><g transform="translate(140.521154, 118.370032)"><g><path d="M 7.859375 -7.15625 L 8.9375 -5.34375 L 0.515625 -0.3125 L -0.34375 -1.765625 L 1.125 -11.28125 L -4.046875 -8.1875 L -5.125 -9.984375 L 2.96875 -14.8125 L 3.84375 -13.375 L 2.375 -3.875 Z M 7.859375 -7.15625 "/></g></g></g><g fill="#e1bb77" fill-opacity="1"><g transform="translate(152.384873, 111.5624)"><g><path d="M 8.546875 -5.59375 L 9.3125 -3.65625 L 1.234375 -0.484375 L -2.859375 -10.90625 L 5.03125 -14 L 5.78125 -12.078125 L 0.296875 -9.921875 L 1.1875 -7.640625 L 6.03125 -9.546875 L 6.78125 -7.671875 L 1.9375 -5.765625 L 2.875 -3.359375 Z M 8.546875 -5.59375 "/></g></g></g><g fill="#e1bb77" fill-opacity="1"><g transform="translate(165.130445, 106.72613)"><g><path d="M 9.171875 -13.265625 L 11.375 -2.28125 L 9.28125 -1.859375 L 2.484375 -7.4375 L 3.8125 -0.765625 L 1.296875 -0.265625 L -0.90625 -11.25 L 1.203125 -11.671875 L 8.015625 -6.109375 L 6.671875 -12.765625 Z M 9.171875 -13.265625 "/></g></g></g><g fill="#e1bb77" fill-opacity="1"><g transform="translate(180.63093, 103.884836)"><g><path d="M 1.25 -11.21875 L 6.34375 -11.25 C 7.550781 -11.257812 8.625 -11.035156 9.5625 -10.578125 C 10.507812 -10.117188 11.242188 -9.46875 11.765625 -8.625 C 12.285156 -7.78125 12.550781 -6.796875 12.5625 -5.671875 C 12.5625 -4.554688 12.304688 -3.578125 11.796875 -2.734375 C 11.285156 -1.890625 10.5625 -1.234375 9.625 -0.765625 C 8.695312 -0.296875 7.628906 -0.0546875 6.421875 -0.046875 L 1.328125 -0.015625 Z M 6.265625 -2.171875 C 7.390625 -2.171875 8.28125 -2.484375 8.9375 -3.109375 C 9.601562 -3.742188 9.9375 -4.59375 9.9375 -5.65625 C 9.925781 -6.726562 9.582031 -7.570312 8.90625 -8.1875 C 8.238281 -8.8125 7.34375 -9.125 6.21875 -9.125 L 3.859375 -9.109375 L 3.90625 -2.15625 Z M 6.265625 -2.171875 "/></g></g></g><g fill="#e1bb77" fill-opacity="1"><g transform="translate(196.687607, 104.087709)"><g><path d="M 9 -0.8125 L 3.875 -1.75 L 2.46875 0.453125 L -0.140625 -0.03125 L 6.78125 -10.140625 L 9.296875 -9.6875 L 12.21875 2.234375 L 9.546875 1.734375 Z M 8.546875 -2.875 L 7.5625 -7.421875 L 5.046875 -3.515625 Z M 8.546875 -2.875 "/></g></g></g><g fill="#e1bb77" fill-opacity="1"><g transform="translate(211.648726, 107.297564)"><g/></g></g><g fill="#e1bb77" fill-opacity="1"><g transform="translate(218.892152, 109.636246)"><g><path d="M 15.78125 -4.765625 L 6.515625 3.171875 L 4.21875 2.046875 L 4.78125 -10.125 L 7.296875 -8.890625 L 6.859375 -0.21875 L 13.453125 -5.890625 Z M 15.78125 -4.765625 "/></g></g></g><g fill="#e1bb77" fill-opacity="1"><g transform="translate(232.148326, 116.597967)"><g><path d="M 7.359375 -8.53125 L 9.515625 -7.09375 L 3.25 2.1875 L 1.09375 0.75 Z M 7.359375 -8.53125 "/></g></g></g><g fill="#e1bb77" fill-opacity="1"><g transform="translate(239.047464, 121.281717)"><g><path d="M 8.84375 5.09375 L 7.46875 6.640625 L 1 0.875 L 8.4375 -7.5 L 14.765625 -1.859375 L 13.390625 -0.296875 L 8.984375 -4.21875 L 7.359375 -2.40625 L 11.25 1.046875 L 9.921875 2.5625 L 6.03125 -0.890625 L 4.296875 1.046875 Z M 8.84375 5.09375 "/></g></g></g><g fill="#e1bb77" fill-opacity="1"><g transform="translate(249.103207, 130.587817)"><g><path d="M 9.515625 -6.0625 L 11.15625 -4.0625 L 4.109375 1.6875 L 7.65625 6.03125 L 6.03125 7.375 L 0.84375 1.03125 Z M 9.515625 -6.0625 "/></g></g></g><g fill="#e1bb77" fill-opacity="1"><g transform="translate(100.816632, 220.843116)"><g><path d="M 3.375 1.6875 C 3.15625 1.175781 3.144531 0.664062 3.34375 0.15625 C 3.550781 -0.34375 3.925781 -0.707031 4.46875 -0.9375 C 5 -1.15625 5.515625 -1.15625 6.015625 -0.9375 C 6.523438 -0.726562 6.890625 -0.367188 7.109375 0.140625 C 7.316406 0.660156 7.316406 1.171875 7.109375 1.671875 C 6.910156 2.171875 6.546875 2.53125 6.015625 2.75 C 5.472656 2.976562 4.945312 2.988281 4.4375 2.78125 C 3.9375 2.570312 3.582031 2.207031 3.375 1.6875 Z M 3.375 1.6875 "/></g></g></g><g fill="#e1bb77" fill-opacity="1"><g transform="translate(104.851152, 229.869868)"><g/></g></g><g fill="#e1bb77" fill-opacity="1"><g transform="translate(109.115752, 237.642249)"><g><path d="M 3.78125 5.515625 C 3.113281 4.585938 2.707031 3.601562 2.5625 2.5625 C 2.414062 1.53125 2.539062 0.539062 2.9375 -0.40625 C 3.34375 -1.351562 3.992188 -2.148438 4.890625 -2.796875 C 5.785156 -3.453125 6.742188 -3.828125 7.765625 -3.921875 C 8.785156 -4.015625 9.769531 -3.832031 10.71875 -3.375 C 11.664062 -2.925781 12.476562 -2.238281 13.15625 -1.3125 C 13.726562 -0.53125 14.109375 0.273438 14.296875 1.109375 C 14.484375 1.941406 14.472656 2.769531 14.265625 3.59375 L 12.046875 3.140625 C 12.316406 2.015625 12.117188 1 11.453125 0.09375 C 11.046875 -0.457031 10.554688 -0.863281 9.984375 -1.125 C 9.410156 -1.382812 8.816406 -1.476562 8.203125 -1.40625 C 7.585938 -1.332031 7 -1.085938 6.4375 -0.671875 C 5.882812 -0.265625 5.472656 0.21875 5.203125 0.78125 C 4.941406 1.351562 4.847656 1.945312 4.921875 2.5625 C 5.003906 3.1875 5.25 3.773438 5.65625 4.328125 C 6.320312 5.234375 7.234375 5.726562 8.390625 5.8125 L 8.140625 8.078125 C 7.296875 8.023438 6.5 7.78125 5.75 7.34375 C 5.007812 6.90625 4.351562 6.296875 3.78125 5.515625 Z M 3.78125 5.515625 "/></g></g></g><g fill="#e1bb77" fill-opacity="1"><g transform="translate(119.017865, 250.547444)"><g><path d="M 7.953125 4.265625 L 4.1875 0.6875 L 1.828125 1.734375 L -0.109375 -0.09375 L 11.234375 -4.765625 L 13.09375 -3 L 9 8.5625 L 7.03125 6.6875 Z M 8.734375 2.265625 L 10.390625 -2.046875 L 6.15625 -0.171875 Z M 8.734375 2.265625 "/></g></g></g><g fill="#e1bb77" fill-opacity="1"><g transform="translate(131.4596, 261.753225)"><g><path d="M 8.328125 -5.390625 L 6.6875 -2.921875 L 11 -0.03125 L 9.828125 1.6875 L 5.515625 -1.203125 L 3.25 2.1875 L 1.109375 0.734375 L 7.359375 -8.5625 L 14.390625 -3.84375 L 13.21875 -2.125 Z M 8.328125 -5.390625 "/></g></g></g><g fill="#e1bb77" fill-opacity="1"><g transform="translate(143.830835, 269.652085)"><g><path d="M 9.953125 2.28125 L 9.09375 4.171875 L 1.203125 0.546875 L 5.875 -9.640625 L 13.578125 -6.109375 L 12.703125 -4.21875 L 7.34375 -6.671875 L 6.328125 -4.453125 L 11.0625 -2.28125 L 10.234375 -0.453125 L 5.5 -2.625 L 4.40625 -0.265625 Z M 11.71875 -10.484375 L 14.171875 -9.375 L 10.578125 -8.46875 L 8.796875 -9.28125 Z M 11.71875 -10.484375 "/></g></g></g><g fill="#e1bb77" fill-opacity="1"><g transform="translate(157.789913, 275.632281)"><g><path d="M 4.78125 1.515625 C 3.9375 1.285156 3.144531 0.941406 2.40625 0.484375 C 1.664062 0.0234375 1.109375 -0.445312 0.734375 -0.9375 L 2.09375 -2.59375 C 2.457031 -2.125 2.929688 -1.703125 3.515625 -1.328125 C 4.097656 -0.953125 4.707031 -0.675781 5.34375 -0.5 C 6.050781 -0.300781 6.601562 -0.257812 7 -0.375 C 7.40625 -0.488281 7.660156 -0.722656 7.765625 -1.078125 C 7.828125 -1.328125 7.78125 -1.566406 7.625 -1.796875 C 7.46875 -2.023438 7.242188 -2.234375 6.953125 -2.421875 C 6.671875 -2.609375 6.28125 -2.835938 5.78125 -3.109375 C 5.007812 -3.523438 4.390625 -3.90625 3.921875 -4.25 C 3.453125 -4.59375 3.085938 -5.03125 2.828125 -5.5625 C 2.566406 -6.09375 2.535156 -6.722656 2.734375 -7.453125 C 2.910156 -8.078125 3.238281 -8.597656 3.71875 -9.015625 C 4.207031 -9.429688 4.832031 -9.691406 5.59375 -9.796875 C 6.351562 -9.898438 7.226562 -9.816406 8.21875 -9.546875 C 8.90625 -9.359375 9.554688 -9.085938 10.171875 -8.734375 C 10.785156 -8.390625 11.300781 -8 11.71875 -7.5625 L 10.421875 -5.890625 C 9.566406 -6.722656 8.644531 -7.28125 7.65625 -7.5625 C 6.945312 -7.75 6.394531 -7.773438 6 -7.640625 C 5.613281 -7.503906 5.367188 -7.253906 5.265625 -6.890625 C 5.171875 -6.515625 5.289062 -6.179688 5.625 -5.890625 C 5.957031 -5.597656 6.5 -5.257812 7.25 -4.875 C 8 -4.457031 8.609375 -4.078125 9.078125 -3.734375 C 9.554688 -3.398438 9.925781 -2.96875 10.1875 -2.4375 C 10.457031 -1.914062 10.492188 -1.289062 10.296875 -0.5625 C 10.117188 0.0507812 9.785156 0.566406 9.296875 0.984375 C 8.804688 1.398438 8.175781 1.660156 7.40625 1.765625 C 6.644531 1.867188 5.769531 1.785156 4.78125 1.515625 Z M 4.78125 1.515625 "/></g></g></g><g fill="#e1bb77" fill-opacity="1"><g transform="translate(171.864665, 279.04042)"><g/></g></g><g fill="#e1bb77" fill-opacity="1"><g transform="translate(180.620369, 280.219628)"><g><path d="M 10.03125 -1.9375 L 10 0.140625 L 1.328125 0.015625 L 1.484375 -11.1875 L 9.953125 -11.0625 L 9.921875 -8.984375 L 4.03125 -9.078125 L 4 -6.640625 L 9.203125 -6.5625 L 9.171875 -4.546875 L 3.96875 -4.625 L 3.9375 -2.03125 Z M 10.03125 -1.9375 "/></g></g></g><g fill="#e1bb77" fill-opacity="1"><g transform="translate(195.805518, 280.046351)"><g><path d="M 5 -0.546875 C 4.113281 -0.421875 3.242188 -0.414062 2.390625 -0.53125 C 1.535156 -0.644531 0.835938 -0.851562 0.296875 -1.15625 L 0.859375 -3.234375 C 1.390625 -2.941406 1.992188 -2.738281 2.671875 -2.625 C 3.359375 -2.519531 4.03125 -2.515625 4.6875 -2.609375 C 5.414062 -2.722656 5.9375 -2.910156 6.25 -3.171875 C 6.570312 -3.441406 6.707031 -3.757812 6.65625 -4.125 C 6.613281 -4.382812 6.472656 -4.582031 6.234375 -4.71875 C 6.003906 -4.863281 5.71875 -4.96875 5.375 -5.03125 C 5.039062 -5.09375 4.59375 -5.144531 4.03125 -5.1875 C 3.164062 -5.257812 2.445312 -5.351562 1.875 -5.46875 C 1.3125 -5.582031 0.800781 -5.832031 0.34375 -6.21875 C -0.101562 -6.601562 -0.378906 -7.164062 -0.484375 -7.90625 C -0.585938 -8.550781 -0.503906 -9.160156 -0.234375 -9.734375 C 0.0351562 -10.316406 0.5 -10.8125 1.15625 -11.21875 C 1.8125 -11.625 2.644531 -11.90625 3.65625 -12.0625 C 4.363281 -12.164062 5.066406 -12.179688 5.765625 -12.109375 C 6.472656 -12.035156 7.101562 -11.882812 7.65625 -11.65625 L 7.15625 -9.59375 C 6.03125 -10.019531 4.957031 -10.160156 3.9375 -10.015625 C 3.21875 -9.898438 2.707031 -9.703125 2.40625 -9.421875 C 2.101562 -9.140625 1.976562 -8.804688 2.03125 -8.421875 C 2.09375 -8.046875 2.332031 -7.789062 2.75 -7.65625 C 3.175781 -7.53125 3.8125 -7.441406 4.65625 -7.390625 C 5.519531 -7.304688 6.234375 -7.207031 6.796875 -7.09375 C 7.367188 -6.976562 7.878906 -6.734375 8.328125 -6.359375 C 8.785156 -5.984375 9.066406 -5.425781 9.171875 -4.6875 C 9.265625 -4.039062 9.171875 -3.429688 8.890625 -2.859375 C 8.617188 -2.285156 8.148438 -1.796875 7.484375 -1.390625 C 6.828125 -0.984375 6 -0.703125 5 -0.546875 Z M 5 -0.546875 "/></g></g></g><g fill="#e1bb77" fill-opacity="1"><g transform="translate(210.287655, 277.578946)"><g><path d="M 2.40625 -12.5625 C 3.34375 -12.875 4.210938 -12.984375 5.015625 -12.890625 C 5.816406 -12.796875 6.5 -12.523438 7.0625 -12.078125 C 7.625 -11.628906 8.035156 -11.007812 8.296875 -10.21875 C 8.546875 -9.425781 8.578125 -8.675781 8.390625 -7.96875 C 8.210938 -7.257812 7.820312 -6.640625 7.21875 -6.109375 C 6.625 -5.578125 5.859375 -5.15625 4.921875 -4.84375 L 2.78125 -4.15625 L 3.734375 -1.21875 L 1.265625 -0.40625 L -2.203125 -11.0625 Z M 4.125 -6.8125 C 4.863281 -7.0625 5.375 -7.40625 5.65625 -7.84375 C 5.945312 -8.289062 6 -8.8125 5.8125 -9.40625 C 5.613281 -10 5.265625 -10.390625 4.765625 -10.578125 C 4.273438 -10.773438 3.660156 -10.75 2.921875 -10.5 L 0.921875 -9.859375 L 2.125 -6.171875 Z M 4.125 -6.8125 "/></g></g></g><g fill="#e1bb77" fill-opacity="1"><g transform="translate(225.5977, 272.182029)"><g><path d="M 6 -2.96875 C 4.988281 -2.4375 3.957031 -2.171875 2.90625 -2.171875 C 1.851562 -2.171875 0.882812 -2.4375 0 -2.96875 C -0.875 -3.5 -1.566406 -4.253906 -2.078125 -5.234375 C -2.609375 -6.210938 -2.847656 -7.210938 -2.796875 -8.234375 C -2.742188 -9.253906 -2.425781 -10.203125 -1.84375 -11.078125 C -1.257812 -11.953125 -0.457031 -12.660156 0.5625 -13.203125 C 1.414062 -13.660156 2.269531 -13.925781 3.125 -14 C 3.976562 -14.070312 4.789062 -13.945312 5.5625 -13.625 L 4.796875 -11.484375 C 3.722656 -11.898438 2.691406 -11.847656 1.703125 -11.328125 C 1.085938 -11.003906 0.613281 -10.578125 0.28125 -10.046875 C -0.0507812 -9.515625 -0.222656 -8.9375 -0.234375 -8.3125 C -0.242188 -7.695312 -0.0820312 -7.082031 0.25 -6.46875 C 0.570312 -5.863281 0.992188 -5.390625 1.515625 -5.046875 C 2.035156 -4.703125 2.601562 -4.523438 3.21875 -4.515625 C 3.84375 -4.515625 4.460938 -4.675781 5.078125 -5 C 6.066406 -5.519531 6.679688 -6.347656 6.921875 -7.484375 L 9.125 -6.921875 C 8.96875 -6.097656 8.617188 -5.347656 8.078125 -4.671875 C 7.546875 -3.992188 6.851562 -3.425781 6 -2.96875 Z M 6 -2.96875 "/></g></g></g><g fill="#e1bb77" fill-opacity="1"><g transform="translate(239.512893, 264.165283)"><g><path d="M -5.515625 -9.84375 L -3.421875 -11.375 L 3.171875 -2.3125 L 1.078125 -0.78125 Z M -5.515625 -9.84375 "/></g></g></g><g fill="#e1bb77" fill-opacity="1"><g transform="translate(247.257606, 258.45945)"><g><path d="M 4.578125 -7.796875 L 0.84375 -4.171875 L 1.8125 -1.75 L -0.09375 0.09375 L -4.328125 -11.421875 L -2.484375 -13.203125 L 8.921875 -8.65625 L 6.96875 -6.75 Z M 2.609375 -8.640625 L -1.640625 -10.46875 L 0.078125 -6.171875 Z M 2.609375 -8.640625 "/></g></g></g><g fill="#e1bb77" fill-opacity="1"><g transform="translate(258.777016, 246.506458)"><g><path d="M -8.046875 -7.90625 L -6.453125 -9.953125 L 2.40625 -3.09375 L 0.8125 -1.046875 Z M -8.046875 -7.90625 "/></g></g></g><g fill="#e1bb77" fill-opacity="1"><g transform="translate(264.532756, 238.875731)"><g><path d="M 2.6875 -4.234375 C 2.238281 -3.472656 1.703125 -2.789062 1.078125 -2.1875 C 0.460938 -1.59375 -0.132812 -1.179688 -0.71875 -0.953125 L -1.96875 -2.6875 C -1.425781 -2.925781 -0.894531 -3.273438 -0.375 -3.734375 C 0.144531 -4.203125 0.570312 -4.722656 0.90625 -5.296875 C 1.28125 -5.921875 1.457031 -6.441406 1.4375 -6.859375 C 1.425781 -7.273438 1.265625 -7.578125 0.953125 -7.765625 C 0.722656 -7.890625 0.476562 -7.910156 0.21875 -7.828125 C -0.03125 -7.742188 -0.285156 -7.582031 -0.546875 -7.34375 C -0.804688 -7.113281 -1.128906 -6.789062 -1.515625 -6.375 C -2.117188 -5.75 -2.640625 -5.253906 -3.078125 -4.890625 C -3.523438 -4.523438 -4.039062 -4.285156 -4.625 -4.171875 C -5.21875 -4.054688 -5.835938 -4.1875 -6.484375 -4.5625 C -7.035156 -4.894531 -7.453125 -5.347656 -7.734375 -5.921875 C -8.023438 -6.492188 -8.117188 -7.160156 -8.015625 -7.921875 C -7.921875 -8.691406 -7.617188 -9.519531 -7.109375 -10.40625 C -6.742188 -11.019531 -6.316406 -11.578125 -5.828125 -12.078125 C -5.335938 -12.585938 -4.828125 -12.984375 -4.296875 -13.265625 L -3 -11.578125 C -4.039062 -10.984375 -4.816406 -10.238281 -5.328125 -9.34375 C -5.703125 -8.71875 -5.875 -8.195312 -5.84375 -7.78125 C -5.8125 -7.363281 -5.628906 -7.054688 -5.296875 -6.859375 C -4.960938 -6.671875 -4.613281 -6.695312 -4.25 -6.9375 C -3.882812 -7.1875 -3.414062 -7.625 -2.84375 -8.25 C -2.25 -8.875 -1.726562 -9.375 -1.28125 -9.75 C -0.832031 -10.125 -0.320312 -10.367188 0.25 -10.484375 C 0.832031 -10.597656 1.445312 -10.46875 2.09375 -10.09375 C 2.644531 -9.769531 3.054688 -9.316406 3.328125 -8.734375 C 3.597656 -8.160156 3.6875 -7.488281 3.59375 -6.71875 C 3.5 -5.945312 3.195312 -5.117188 2.6875 -4.234375 Z M 2.6875 -4.234375 "/></g></g></g><g fill="#e1bb77" fill-opacity="1"><g transform="translate(271.476563, 226.13019)"><g><path d="M -1.15625 -3.59375 C -1.375 -3.082031 -1.734375 -2.71875 -2.234375 -2.5 C -2.742188 -2.289062 -3.269531 -2.300781 -3.8125 -2.53125 C -4.34375 -2.75 -4.707031 -3.109375 -4.90625 -3.609375 C -5.113281 -4.117188 -5.109375 -4.628906 -4.890625 -5.140625 C -4.679688 -5.660156 -4.320312 -6.023438 -3.8125 -6.234375 C -3.3125 -6.441406 -2.796875 -6.4375 -2.265625 -6.21875 C -1.722656 -5.988281 -1.347656 -5.625 -1.140625 -5.125 C -0.941406 -4.625 -0.945312 -4.113281 -1.15625 -3.59375 Z M -1.15625 -3.59375 "/></g></g></g></svg>